name Walk5.mot
datacolumns 19
datarows 25
range 1.11000000 1.13400000
endheader

                time	   L_ground_force_vx	   L_ground_force_vy	   L_ground_force_vz	   L_ground_force_px	   L_ground_force_py	   L_ground_force_pz	   R_ground_force_vx	   R_ground_force_vy	   R_ground_force_vz	   R_ground_force_px	   R_ground_force_py	   R_ground_force_pz	   L_ground_torque_x	   L_ground_torque_y	   L_ground_torque_z	   R_ground_torque_x	   R_ground_torque_y	   R_ground_torque_z	
          1.11000000	        -12.82360021	        111.54688452	         -7.75157002	         -0.10100502	          0.00000000	         -0.01780619	          0.00000002	          0.00000008	          0.00000001	          0.00000000	          0.00000000	          0.00000000	          0.00000000	          0.24128864	          0.00000000	          0.00000000	         -0.00000000	          0.00000000	
          1.11100000	        -13.84982838	        119.95664866	         -8.24712196	         -0.10681457	          0.00000000	         -0.01884206	          0.00000002	          0.00000010	          0.00000001	          0.00000000	          0.00000000	          0.00000000	          0.00000000	          0.26307604	          0.00000000	          0.00000000	         -0.00000000	          0.00000000	
          1.11200000	        -14.91422030	        128.65248037	         -8.75466323	         -0.11272284	          0.00000000	         -0.01989636	          0.00000002	          0.00000012	          0.00000001	          0.00000000	          0.00000000	          0.00000000	          0.00000000	          0.28580155	          0.00000000	          0.00000000	         -0.00000000	          0.00000000	
          1.11300000	        -16.01592651	        137.62504948	         -9.27321182	         -0.11871459	          0.00000000	         -0.02096646	          0.00000002	          0.00000015	          0.00000002	          0.00000000	          0.00000000	          0.00000000	          0.00000000	          0.30945850	          0.00000000	          0.00000000	         -0.00000000	          0.00000000	
          1.11400000	        -17.15386448	        146.86301592	         -9.80164903	         -0.12477285	          0.00000000	         -0.02204942	          0.00000002	          0.00000018	          0.00000002	          0.00000000	          0.00000000	          0.00000000	          0.00000000	          0.33403574	          0.00000000	          0.00000000	         -0.00000000	          0.00000000	
          1.11500000	        -18.32670147	        156.35288980	        -10.33871137	         -0.13087878	          0.00000000	         -0.02314194	          0.00000002	          0.00000021	          0.00000002	          0.00000000	          0.00000000	          0.00000000	          0.00000000	          0.35951728	          0.00000000	          0.00000000	         -0.00000000	          0.00000000	
          1.11600000	        -19.53283677	        166.07888730	        -10.88298230	         -0.13701158	          0.00000000	         -0.02424041	          0.00000002	          0.00000024	          0.00000002	          0.00000000	          0.00000000	          0.00000000	          0.00000000	          0.38588192	          0.00000000	          0.00000000	         -0.00000000	          0.00000000	
          1.11700000	        -20.77038788	        176.02279312	        -11.43288517	         -0.14314868	          0.00000000	         -0.02534090	          0.00000002	          0.00000028	          0.00000003	          0.00000000	          0.00000000	          0.00000000	          0.00000000	          0.41310290	          0.00000000	          0.00000000	         -0.00000000	          0.00000000	
          1.11800000	        -22.03719272	        186.16386615	        -11.98668041	         -0.14926669	          0.00000000	         -0.02643931	          0.00000002	          0.00000031	          0.00000003	          0.00000000	          0.00000000	          0.00000000	          0.00000000	          0.44114780	          0.00000000	          0.00000000	         -0.00000000	          0.00000000	
          1.11900000	        -23.33083365	        196.47883518	        -12.54246825	         -0.15534288	          0.00000000	         -0.02753172	          0.00000001	          0.00000035	          0.00000003	          0.00000000	          0.00000000	          0.00000000	          0.00000000	          0.46997872	          0.00000000	          0.00000000	         -0.00000000	          0.00000000	
          1.12000000	        -24.64867627	        206.94201658	        -13.09819339	         -0.16135619	          0.00000000	         -0.02861454	          0.00000001	          0.00000039	          0.00000004	          0.00000000	          0.00000000	          0.00000000	          0.00000000	          0.49955267	          0.00000000	          0.00000000	         -0.00000001	          0.00000000	
          1.12100000	        -25.98792079	        217.52558206	        -13.65164957	         -0.16728752	          0.00000000	         -0.02968459	          0.00000001	          0.00000043	          0.00000004	          0.00000000	          0.00000000	          0.00000000	          0.00000000	          0.52982233	          0.00000000	          0.00000000	         -0.00000001	          0.00000000	
          1.12200000	        -27.34567137	        228.20000605	        -14.20048454	         -0.17311962	          0.00000000	         -0.03073911	          0.00000001	          0.00000048	          0.00000004	          0.00000000	          0.00000000	          0.00000000	          0.00000000	          0.56073701	          0.00000000	          0.00000000	         -0.00000001	          0.00000000	
          1.12300000	        -28.71902359	        238.93469640	        -14.74220580	         -0.17883702	          0.00000000	         -0.03177570	          0.00000001	          0.00000052	          0.00000005	          0.00000000	          0.00000000	          0.00000000	          0.00000000	          0.59224389	          0.00000000	          0.00000000	         -0.00000001	          0.00000000	
          1.12400000	        -30.10516050	        249.69876641	        -15.27418818	         -0.18442597	          0.00000000	         -0.03279230	          0.00000001	          0.00000057	          0.00000005	          0.00000000	          0.00000000	          0.00000000	          0.00000000	          0.62428932	          0.00000000	          0.00000000	         -0.00000000	          0.00000000	
          1.12500000	        -31.50144360	        260.46185976	        -15.79368495	         -0.18987437	          0.00000000	         -0.03378713	          0.00000000	          0.00000062	          0.00000005	          0.00000000	          0.00000000	          0.00000000	          0.00000000	          0.65681978	          0.00000000	          0.00000000	         -0.00000000	          0.00000000	
          1.12600000	        -32.90548512	        271.19491367	        -16.29784479	         -0.19517161	          0.00000000	         -0.03475871	          0.00000000	          0.00000068	          0.00000006	          0.00000000	          0.00000000	          0.00000000	          0.00000000	          0.68978261	          0.00000000	          0.00000000	         -0.00000000	          0.00000000	
          1.12700000	        -34.31519316	        281.87075538	        -16.78373623	         -0.20030857	          0.00000000	         -0.03570581	         -0.00000000	          0.00000073	          0.00000006	          0.00000000	          0.00000000	          0.00000000	          0.00000000	          0.72312627	          0.00000000	          0.00000000	         -0.00000000	          0.00000000	
          1.12800000	        -35.72878786	        292.46446825	        -17.24838016	         -0.20527746	          0.00000000	         -0.03662742	         -0.00000000	          0.00000079	          0.00000007	          0.00000000	          0.00000000	          0.00000000	          0.00000000	          0.75680032	          0.00000000	          0.00000000	         -0.00000000	          0.00000000	
          1.12900000	        -37.14479204	        302.95352041	        -17.68878935	         -0.21007178	          0.00000000	         -0.03752274	         -0.00000001	          0.00000085	          0.00000007	          0.00000000	          0.00000000	          0.00000000	          0.00000000	          0.79075516	          0.00000000	          0.00000000	         -0.00000000	          0.00000000	
          1.13000000	        -38.56200273	        313.31769742	        -18.10201305	         -0.21468621	          0.00000000	         -0.03839120	         -0.00000001	          0.00000091	          0.00000008	          0.00000000	          0.00000000	          0.00000000	          0.00000000	          0.82494182	          0.00000000	          0.00000000	         -0.00000000	          0.00000000	
          1.13100000	        -39.97945111	        323.53890930	        -18.48518331	         -0.21911653	          0.00000000	         -0.03923239	         -0.00000002	          0.00000098	          0.00000008	          0.00000000	          0.00000000	          0.00000000	          0.00000000	          0.85931173	          0.00000000	          0.00000000	         -0.00000000	          0.00000000	
          1.13200000	        -41.39635784	        333.60094844	        -18.83556019	         -0.22335954	          0.00000000	         -0.04004607	         -0.00000002	          0.00000104	          0.00000009	          0.00000000	          0.00000000	          0.00000000	          0.00000000	          0.89381677	          0.00000000	          0.00000000	         -0.00000000	          0.00000000	
          1.13300000	        -42.81208899	        343.48926232	        -19.15057281	         -0.22741301	          0.00000000	         -0.04083217	         -0.00000002	          0.00000111	          0.00000009	          0.00000000	          0.00000000	          0.00000000	          0.00000000	          0.92840933	          0.00000000	          0.00000000	         -0.00000000	          0.00000000	
          1.13400000	        -44.22611629	        353.19078308	        -19.42785398	         -0.23127555	          0.00000000	         -0.04159074	         -0.00000003	          0.00000118	          0.00000010	          0.00000000	          0.00000000	          0.00000000	          0.00000000	          0.96304232	          0.00000000	          0.00000000	         -0.00000000	          0.00000000	
